<svg id="visual" viewBox="0 0 600 1900" width="600" height="1900" xmlns="http://www.w3.org/2000/svg" xmlns:xlink="http://www.w3.org/1999/xlink" version="1.1"><g fill="none" stroke="#94d1ee" stroke-width="2"><circle r="41" cx="345" cy="1144"></circle><circle r="1" cx="367" cy="1369"></circle><circle r="38" cx="231" cy="806"></circle><circle r="22" cx="312" cy="1621"></circle><circle r="7" cx="65" cy="1369"></circle><circle r="13" cx="530" cy="201"></circle><circle r="32" cx="494" cy="1181"></circle><circle r="29" cx="438" cy="1249"></circle><circle r="30" cx="71" cy="1601"></circle><circle r="8" cx="546" cy="455"></circle><circle r="32" cx="298" cy="1796"></circle><circle r="8" cx="66" cy="788"></circle><circle r="34" cx="527" cy="1287"></circle><circle r="13" cx="246" cy="140"></circle><circle r="13" cx="433" cy="840"></circle><circle r="7" cx="102" cy="1038"></circle><circle r="37" cx="228" cy="930"></circle><circle r="35" cx="352" cy="1455"></circle><circle r="13" cx="504" cy="1068"></circle><circle r="13" cx="131" cy="1450"></circle><circle r="14" cx="365" cy="905"></circle><circle r="39" cx="316" cy="1243"></circle><circle r="36" cx="498" cy="1614"></circle><circle r="6" cx="234" cy="1192"></circle><circle r="34" cx="223" cy="450"></circle><circle r="31" cx="68" cy="1211"></circle><circle r="31" cx="66" cy="87"></circle><circle r="26" cx="468" cy="529"></circle><circle r="29" cx="158" cy="1131"></circle><circle r="37" cx="444" cy="972"></circle><circle r="17" cx="130" cy="697"></circle><circle r="11" cx="430" cy="1518"></circle><circle r="13" cx="197" cy="1040"></circle><circle r="35" cx="401" cy="1779"></circle><circle r="22" cx="360" cy="730"></circle><circle r="4" cx="549" cy="724"></circle><circle r="10" cx="204" cy="287"></circle><circle r="26" cx="412" cy="173"></circle><circle r="34" cx="361" cy="415"></circle><circle r="10" cx="503" cy="1757"></circle><circle r="13" cx="61" cy="1748"></circle><circle r="24" cx="53" cy="490"></circle><circle r="26" cx="43" cy="284"></circle><circle r="21" cx="480" cy="1420"></circle><circle r="16" cx="451" cy="716"></circle><circle r="23" cx="116" cy="1853"></circle><circle r="4" cx="535" cy="939"></circle><circle r="39" cx="450" cy="432"></circle><circle r="4" cx="259" cy="1539"></circle><circle r="13" cx="489" cy="353"></circle><circle r="25" cx="296" cy="324"></circle><circle r="17" cx="243" cy="1730"></circle><circle r="31" cx="410" cy="1081"></circle><circle r="2" cx="306" cy="1009"></circle><circle r="6" cx="518" cy="75"></circle><circle r="12" cx="47" cy="964"></circle><circle r="9" cx="235" cy="1329"></circle><circle r="0" cx="234" cy="548"></circle><circle r="4" cx="160" cy="1568"></circle><circle r="22" cx="348" cy="544"></circle><circle r="12" cx="226" cy="701"></circle><circle r="0" cx="554" cy="597"></circle><circle r="32" cx="400" cy="1618"></circle><circle r="35" cx="117" cy="423"></circle><circle r="39" cx="349" cy="114"></circle><circle r="4" cx="135" cy="539"></circle><circle r="20" cx="164" cy="1763"></circle><circle r="23" cx="293" cy="47"></circle><circle r="12" cx="322" cy="814"></circle><circle r="15" cx="116" cy="1683"></circle><circle r="1" cx="134" cy="176"></circle><circle r="18" cx="43" cy="635"></circle><circle r="12" cx="525" cy="828"></circle><circle r="22" cx="382" cy="253"></circle><circle r="12" cx="550" cy="1830"></circle><circle r="28" cx="185" cy="48"></circle><circle r="29" cx="152" cy="1351"></circle><circle r="10" cx="268" cy="1441"></circle><circle r="35" cx="46" cy="374"></circle><circle r="25" cx="555" cy="1508"></circle><circle r="21" cx="227" cy="1632"></circle><circle r="16" cx="463" cy="628"></circle><circle r="33" cx="137" cy="880"></circle><circle r="37" cx="203" cy="1846"></circle><circle r="26" cx="43" cy="1123"></circle><circle r="16" cx="52" cy="1487"></circle><circle r="22" cx="373" cy="628"></circle><circle r="9" cx="342" cy="1706"></circle><circle r="37" cx="554" cy="289"></circle><circle r="25" cx="436" cy="49"></circle><circle r="24" cx="265" cy="1108"></circle><circle r="34" cx="455" cy="1855"></circle><circle r="13" cx="143" cy="1259"></circle><circle r="0" cx="125" cy="329"></circle><circle r="6" cx="182" cy="624"></circle><circle r="15" cx="289" cy="643"></circle><circle r="37" cx="302" cy="216"></circle><circle r="19" cx="556" cy="1380"></circle><circle r="36" cx="43" cy="873"></circle><circle r="5" cx="49" cy="195"></circle></g></svg>