<svg id="visual" viewBox="0 0 960 540" width="960" height="540" xmlns="http://www.w3.org/2000/svg" xmlns:xlink="http://www.w3.org/1999/xlink" version="1.1"><g fill="none" stroke="#94d1ee" stroke-width="6"><circle r="49" cx="565" cy="232"></circle><circle r="11" cx="318" cy="192"></circle><circle r="18" cx="177" cy="62"></circle><circle r="39" cx="442" cy="94"></circle><circle r="30" cx="461" cy="306"></circle><circle r="33" cx="240" cy="444"></circle><circle r="32" cx="880" cy="301"></circle><circle r="47" cx="693" cy="417"></circle><circle r="15" cx="52" cy="53"></circle><circle r="21" cx="752" cy="209"></circle><circle r="29" cx="776" cy="355"></circle><circle r="32" cx="757" cy="66"></circle><circle r="10" cx="284" cy="94"></circle><circle r="31" cx="336" cy="377"></circle><circle r="22" cx="600" cy="136"></circle><circle r="13" cx="567" cy="373"></circle><circle r="19" cx="114" cy="355"></circle><circle r="26" cx="860" cy="63"></circle><circle r="33" cx="97" cy="463"></circle><circle r="16" cx="128" cy="211"></circle><circle r="22" cx="462" cy="201"></circle><circle r="41" cx="848" cy="455"></circle><circle r="42" cx="890" cy="169"></circle></g></svg>