<svg id="visual" viewBox="0 0 3000 1200" width="3000" height="1200" xmlns="http://www.w3.org/2000/svg" xmlns:xlink="http://www.w3.org/1999/xlink" version="1.1"><path d="M0 139L21.7 284.3C43.3 429.7 86.7 720.3 130.2 854C173.7 987.7 217.3 964.3 260.8 815.8C304.3 667.3 347.7 393.7 391.2 376.3C434.7 359 478.3 598 521.8 663.8C565.3 729.7 608.7 622.3 652.2 595.2C695.7 568 739.3 621 782.8 668.2C826.3 715.3 869.7 756.7 913 696C956.3 635.3 999.7 472.7 1043.2 501.5C1086.7 530.3 1130.3 750.7 1173.8 805.5C1217.3 860.3 1260.7 749.7 1304.2 754.8C1347.7 760 1391.3 881 1434.8 882.2C1478.3 883.3 1521.7 764.7 1565.2 666.2C1608.7 567.7 1652.3 489.3 1695.8 467.7C1739.3 446 1782.7 481 1826.2 524C1869.7 567 1913.3 618 1956.8 664.2C2000.3 710.3 2043.7 751.7 2087 811.2C2130.3 870.7 2173.7 948.3 2217.2 939.3C2260.7 930.3 2304.3 834.7 2347.8 784.5C2391.3 734.3 2434.7 729.7 2478.2 784.2C2521.7 838.7 2565.3 952.3 2608.8 958C2652.3 963.7 2695.7 861.3 2739.2 795.7C2782.7 730 2826.3 701 2869.8 754.2C2913.3 807.3 2956.7 942.7 2978.3 1010.3L3000 1078L3000 1201L2978.3 1201C2956.7 1201 2913.3 1201 2869.8 1201C2826.3 1201 2782.7 1201 2739.2 1201C2695.7 1201 2652.3 1201 2608.8 1201C2565.3 1201 2521.7 1201 2478.2 1201C2434.7 1201 2391.3 1201 2347.8 1201C2304.3 1201 2260.7 1201 2217.2 1201C2173.7 1201 2130.3 1201 2087 1201C2043.7 1201 2000.3 1201 1956.8 1201C1913.3 1201 1869.7 1201 1826.2 1201C1782.7 1201 1739.3 1201 1695.8 1201C1652.3 1201 1608.7 1201 1565.2 1201C1521.7 1201 1478.3 1201 1434.8 1201C1391.3 1201 1347.7 1201 1304.2 1201C1260.7 1201 1217.3 1201 1173.8 1201C1130.3 1201 1086.7 1201 1043.2 1201C999.7 1201 956.3 1201 913 1201C869.7 1201 826.3 1201 782.8 1201C739.3 1201 695.7 1201 652.2 1201C608.7 1201 565.3 1201 521.8 1201C478.3 1201 434.7 1201 391.2 1201C347.7 1201 304.3 1201 260.8 1201C217.3 1201 173.7 1201 130.2 1201C86.7 1201 43.3 1201 21.7 1201L0 1201Z" fill="#b8dbf1"></path></svg>