<svg id="visual" viewBox="0 0 900 600" width="900" height="600" xmlns="http://www.w3.org/2000/svg" xmlns:xlink="http://www.w3.org/1999/xlink" version="1.1"><path d="M0 413L21.5 413.5C43 414 86 415 128.8 421C171.7 427 214.3 438 257.2 434.8C300 431.7 343 414.3 385.8 425C428.7 435.7 471.3 474.3 514.2 492.3C557 510.3 600 507.7 642.8 506.3C685.7 505 728.3 505 771.2 492C814 479 857 453 878.5 440L900 427L900 601L878.5 601C857 601 814 601 771.2 601C728.3 601 685.7 601 642.8 601C600 601 557 601 514.2 601C471.3 601 428.7 601 385.8 601C343 601 300 601 257.2 601C214.3 601 171.7 601 128.8 601C86 601 43 601 21.5 601L0 601Z" fill="#aad9e6" stroke-linecap="round" stroke-linejoin="miter"></path></svg>