<svg id="visual" viewBox="0 0 900 600" width="900" height="600" xmlns="http://www.w3.org/2000/svg" xmlns:xlink="http://www.w3.org/1999/xlink" version="1.1"><path d="M0 422L30 404.2C60 386.3 120 350.7 180 358.8C240 367 300 419 360 430.8C420 442.7 480 414.3 540 405.7C600 397 660 408 720 396.8C780 385.7 840 352.3 870 335.7L900 319L900 601L870 601C840 601 780 601 720 601C660 601 600 601 540 601C480 601 420 601 360 601C300 601 240 601 180 601C120 601 60 601 30 601L0 601Z" fill="#0066FF" stroke-linecap="round" stroke-linejoin="miter"></path></svg>